inDegrees=no
num_controls=7
num_derivatives=13
num_iterations=163
num_multipliers=7
num_parameters=0
num_slacks=7
num_states=26
objective=5.974713
objective_accelerations=0.563442
objective_balance=0.052724
objective_effort=0.502113
objective_height=4.739194
objective_ligament=0.117240
solver_duration=1664.038849
status=Solve_Succeeded
success=true
DataType=double
version=3
OpenSimVersion=4.4-2022-07-23-0e9fedc
endheader
time	/jointset/ground_pelvis/pelvis_tilt/value	/jointset/ground_pelvis/pelvis_tx/value	/jointset/ground_pelvis/pelvis_ty/value	/jointset/hip_l/hip_flexion_l/value	/jointset/hip_l/hip_adduction_l/value	/jointset/hip_l/hip_rotation_l/value	/jointset/back/lumbar_extension/value	/jointset/patellofemoral_l/patellar_flexion_l/value	/jointset/knee_l/knee_flexion_l/value	/jointset/knee_l/knee_adduction_l/value	/jointset/knee_l/knee_rotation_l/value	/jointset/ankle_l/ankle_angle_l/value	/jointset/subtalar_l/subtalar_angle_l/value	/jointset/ground_pelvis/pelvis_tilt/speed	/jointset/ground_pelvis/pelvis_tx/speed	/jointset/ground_pelvis/pelvis_ty/speed	/jointset/hip_l/hip_flexion_l/speed	/jointset/hip_l/hip_adduction_l/speed	/jointset/hip_l/hip_rotation_l/speed	/jointset/back/lumbar_extension/speed	/jointset/patellofemoral_l/patellar_flexion_l/speed	/jointset/knee_l/knee_flexion_l/speed	/jointset/knee_l/knee_adduction_l/speed	/jointset/knee_l/knee_rotation_l/speed	/jointset/ankle_l/ankle_angle_l/speed	/jointset/subtalar_l/subtalar_angle_l/speed	/forceset/tau_hip_flexion_l	/forceset/tau_hip_adduction_l	/forceset/tau_hip_rotation_l	/forceset/tau_knee_flexion_l	/forceset/tau_ankle_angle_l	/forceset/tau_subtalar_angle_l	/forceset/tau_lumbar_extension	lambda_cid13_p0	lambda_cid13_p1	lambda_cid13_p2	lambda_cid13_p3	lambda_cid13_p4	lambda_cid13_p5	lambda_cid14_p0	/jointset/ground_pelvis/pelvis_tilt/accel	/jointset/ground_pelvis/pelvis_tx/accel	/jointset/ground_pelvis/pelvis_ty/accel	/jointset/hip_l/hip_flexion_l/accel	/jointset/hip_l/hip_adduction_l/accel	/jointset/hip_l/hip_rotation_l/accel	/jointset/back/lumbar_extension/accel	/jointset/patellofemoral_l/patellar_flexion_l/accel	/jointset/knee_l/knee_flexion_l/accel	/jointset/knee_l/knee_adduction_l/accel	/jointset/knee_l/knee_rotation_l/accel	/jointset/ankle_l/ankle_angle_l/accel	/jointset/subtalar_l/subtalar_angle_l/accel	gamma_cid13_p0	gamma_cid13_p1	gamma_cid13_p2	gamma_cid13_p3	gamma_cid13_p4	gamma_cid13_p5	gamma_cid14_p0
0	-0.03682269148859187	0.05667757225951374	0.9203415904633623	0.3085811930696054	-0.2956404661551834	-0.3016070621408547	-0.3879500408040475	0.2499276582270869	0.249927658227084	-0.1745329251994329	-0.1745327613048205	-0.0008036543073733089	0.0004376113534568925	0	0	0	0	0	0	0	0	0	0	0	0	0	0.08003708456865805	-0.04792523436844007	-0.02144724245195545	-0.2549453531741118	0.206095651443628	-0.0206538910790497	-0.003114613841017851	22.52523631243366	2.526497256901087	1.997909401946591	7.19966049061262	-621.7309620190888	-70.64507934175226	-23.19695449656381	-1.202956691932485	-2.045807582437773	-0.9364356821092006	9.543173630890223	-0.7500700571573882	3.293452190678024	-7.30620708120626	9.375256114162832	9.375256114161688	1.456296719467717	-0.06363646427082653	1.607849823138487	-0.2618182902287786	-1.564701142359719e-10	1.609832752429746e-07	6.437396751802803e-08	-6.390800511513132e-09	1.080922073380398e-07	1.329883745890814e-09	5.594500586728276e-09
0.01	-0.03687885262589425	0.05657684809026472	0.9202958091359634	0.3090464217826707	-0.2956780828174153	-0.3014416931994698	-0.3883136751299516	0.2503872120606154	0.2503872120606325	-0.174463648965567	-0.1745324915060704	-0.0007250889732386571	0.0004237624337748571	-0.01116968679399143	-0.0200067716208256	-0.00911932882143099	0.09255821539484094	-0.007478076515354904	0.03290769609748266	-0.07219808398911233	0.09149758845088789	0.09149758845087973	0.01380259930521611	4.791176120686491e-05	0.01570525835636535	-0.002724048346780397	0.07372623024509356	-0.05955169712202004	-0.02054802384591047	-0.2496792149558672	0.1964184533739574	-0.005461229339262756	0.002810331995471301	19.87826007687485	-3.52331780297481	2.865448777383301	6.932398298025288	-624.5494118027079	-82.84008423831273	-23.20219938814174	-1.064601594182073	-1.957403895794549	-0.8941193649674475	9.039010339091353	-0.7399240228081511	3.264512952781017	-7.097291878822431	8.975032353948686	8.975032353948446	1.334225981870997	0.03810333574982615	1.55069681467831	-0.270870895278175	-2.732887646208946e-08	1.593605290128854e-07	1.343857173626835e-07	2.151523541518539e-08	-7.732560224768252e-09	-4.501999077342471e-08	-1.578033677628559e-09
0.02	-0.03704483601534364	0.05628019781602975	0.9201599469437886	0.3104226056187068	-0.2957891297596064	-0.3009522303703887	-0.3893834268599635	0.2517493462073005	0.2517493462073073	-0.174257944758595	-0.1745319229224947	-0.0004897044609799553	0.0003840384729499003	-0.0219644504299084	-0.03918522099719036	-0.01801617295520922	0.1821910246021345	-0.01468605599401665	0.06481877753486079	-0.1412234808205651	0.1805160626376484	0.1805160626376436	0.02728457644331027	5.975709975116111e-05	0.03136383562443842	-0.005175008228587242	0.06741537592108958	-0.07117815987571942	-0.01964880523969203	-0.244413076737947	0.1867412553041444	0.009731432400349424	0.008735277831759859	17.30396649646089	-9.584515737169038	3.733268546306452	6.557456258457326	-626.2766832748533	-94.94385364001646	-23.2176265126462	-1.127972060317553	-1.880143133545632	-0.8919387445786483	8.958092393380735	-0.6960506498187656	3.094129258657067	-6.671669649674317	8.879433261337365	8.879433261338544	1.392172286043323	-0.07084974880340204	1.598513605480001	-0.2072005972340848	-5.450128280994295e-08	1.577377827827961e-07	2.04397467207339e-07	4.942127134188391e-08	-1.235573277875763e-07	-9.136986529274023e-08	-8.750567941985395e-09
0.03	-0.03731710180982117	0.05579582570079375	0.9199359781835975	0.3126809553786063	-0.2959708318985962	-0.3001490132954636	-0.3911278269025056	0.2539893774925797	0.2539893774925788	-0.1739191180432805	-0.1745317126862664	-9.815726155379922e-05	0.0003211768017799369	-0.03242314935280968	-0.05755885062175854	-0.02676133463674886	0.2690043598016028	-0.02160916526375653	0.09567559516225967	-0.2071804565522749	0.2670750861804672	0.267075086180469	0.04039618799815775	-1.303800551731748e-06	0.04691801209193048	-0.007359543980343954	0.06103125260903139	-0.06339201197130205	-0.018939013635347	-0.2395184213341023	0.1836165296621137	0.00604611407320233	0.01449966597434829	16.11721556738914	-7.857303200693498	3.550553798208654	6.374469256344422	-627.7593124109887	-90.45244878028883	-23.24259078107943	-0.994990659486881	-1.796410165740604	-0.8633933924435667	8.471760098068009	-0.6837112444371602	3.059077666941153	-6.486300864490663	8.481872443938014	8.481872443938109	1.258015919836744	0.028757044139172	1.52973249765664	-0.2184611500055285	-7.597028228735772e-08	1.362343713935838e-07	2.648711051527743e-07	6.880747466819561e-08	-2.155626773982751e-07	-1.344088079500394e-07	-1.703937486144736e-08
0.04	-0.03769198896377388	0.05513162983154622	0.9196250401040907	0.3157931996934791	-0.2962204191660638	-0.2990417041138394	-0.3935175145682784	0.257082546121939	0.2570825461219343	-0.1734517031465056	-0.1745316147982596	0.0004481042686016995	0.000237593555920577	-0.0424887223241389	-0.07514997179949495	-0.03541003681835719	0.3529699355945827	-0.0282630816889335	0.1256371988760573	-0.2702810054668312	0.3511435314506434	0.3511435314506415	0.05300221273826447	3.728749046037917e-05	0.06230670177033747	-0.009319323166460537	0.0546471292971201	-0.05560586406683858	-0.01822922203110774	-0.2346237659301441	0.1804918040201326	0.0023607957461213	0.02026405411700208	14.99798556229136	-6.138291115249986	3.365009341220075	6.083618676984242	-628.2422115853039	-85.87126746566283	-23.2762412723056	-1.049346870003098	-1.723641444179302	-0.8726468445923821	8.388540512083054	-0.64221208090617	2.915086475936911	-6.100384286243585	8.381317606808814	8.381317606807968	1.291054923095184	-0.05091931054030342	1.565416247662963	-0.1622492841060561	-9.73216857468253e-08	1.143210493825338e-07	3.251480809971947e-07	8.801801134295295e-08	-3.070769049893429e-07	-1.773794839710083e-07	-2.535119771194243e-08
